C:\Users\israe\Dropbox\PhDWork\ExperimentalData\subject9\055\P9S055W02_filtered35.mot
nRows=13
nColumns=28

name C:\Users\israe\Dropbox\PhDWork\ExperimentalData\subject9\055\P9S055W02_filtered35.mot
datacolumns 28
datarows 13
range 2.5120000000 2.5240000000
endheader
time	ground_force_1_vx	ground_force_1_vy	ground_force_1_vz	ground_force_1_px	ground_force_1_py	ground_force_1_pz	ground_moment_1_mx	ground_moment_1_my	ground_moment_1_mz	ground_force_2_vx	ground_force_2_vy	ground_force_2_vz	ground_force_2_px	ground_force_2_py	ground_force_2_pz	ground_moment_2_mx	ground_moment_2_my	ground_moment_2_mz	ground_force_3_vx	ground_force_3_vy	ground_force_3_vz	ground_force_3_px	ground_force_3_py	ground_force_3_pz	ground_moment_3_mx	ground_moment_3_my	ground_moment_3_mz
        2.5120000000	       60.7338040113	      608.4829481032	       65.1311134675	        0.1988394961	        0.0000558755	       -0.3004071324	      143.4433120783	       -8.0388863179	      -59.5452207464	        0.0000000000	        0.0000000000	        0.0000000000	        0.2029003516	       -0.0000795827	        0.4543649445	       -0.0000000000	        0.0000000000	       -0.0000000000	       -0.0000000000	        0.0000000000	        0.0000000000	        0.2076431971	        0.0000770316	        1.3583900146	        0.0000000000	       -0.0000000000	        0.0000000000	
        2.5130000000	       60.4986630383	      606.8256174799	       64.7535544147	        0.1988394961	        0.0000558755	       -0.3004071324	      143.0633483895	       -8.0194412871	      -59.3907143301	        0.0000000000	        0.0000000000	        0.0000000000	        0.2029003516	       -0.0000795827	        0.4543649445	       -0.0000000000	        0.0000000000	       -0.0000000000	       -0.0000000000	        0.0000000000	        0.0000000000	        0.2076431971	        0.0000770316	        1.3583900146	        0.0000000000	       -0.0000000000	        0.0000000000	
        2.5140000000	       60.2531557251	      605.1878542659	       64.3789578789	        0.1988394961	        0.0000558755	       -0.3004071324	      142.6858154229	       -7.9977553469	      -59.2340960492	        0.0000000000	        0.0000000000	        0.0000000000	        0.2029003516	       -0.0000795827	        0.4543649445	       -0.0000000000	        0.0000000000	       -0.0000000000	       -0.0000000000	        0.0000000000	        0.0000000000	        0.2076431971	        0.0000770316	        1.3583900146	        0.0000000000	       -0.0000000000	        0.0000000000	
        2.5150000000	       59.9980821831	      603.5667428460	       64.0065217397	        0.1988394961	        0.0000558755	       -0.3004071324	      142.3116418468	       -7.9739708081	      -59.0754457340	        0.0000000000	        0.0000000000	        0.0000000000	        0.2029003516	       -0.0000795827	        0.4543649445	       -0.0000000000	        0.0000000000	       -0.0000000000	       -0.0000000000	        0.0000000000	        0.0000000000	        0.2076431971	        0.0000770316	        1.3583900146	        0.0000000000	       -0.0000000000	        0.0000000000	
        2.5160000000	       59.7346202299	      601.9559711496	       63.6360946875	        0.1988394961	        0.0000558755	       -0.3004071324	      141.9415811163	       -7.9483555950	      -58.9150911845	        0.0000000000	        0.0000000000	        0.0000000000	        0.2029003516	       -0.0000795827	        0.4543649445	       -0.0000000000	        0.0000000000	       -0.0000000000	       -0.0000000000	        0.0000000000	        0.0000000000	        0.2076431971	        0.0000770316	        1.3583900146	        0.0000000000	       -0.0000000000	        0.0000000000	
        2.5170000000	       59.4641061756	      600.3494763924	       63.2684165191	        0.1988394961	        0.0000558755	       -0.3004071324	      141.5762001097	       -7.9212396270	      -58.7534997751	        0.0000000000	        0.0000000000	        0.0000000000	        0.2029003516	       -0.0000795827	        0.4543649445	       -0.0000000000	        0.0000000000	       -0.0000000000	       -0.0000000000	        0.0000000000	        0.0000000000	        0.2076431971	        0.0000770316	        1.3583900146	        0.0000000000	       -0.0000000000	        0.0000000000	
        2.5180000000	       59.1876063433	      598.7440070297	       62.9046716637	        0.1988394961	        0.0000558755	       -0.3004071324	      141.2157493138	       -7.8928877097	      -58.5911156407	       -0.0000000000	        0.0000000000	        0.0000000000	        0.2029003516	       -0.0000795827	        0.4543649445	       -0.0000000000	        0.0000000000	        0.0000000000	       -0.0000000000	        0.0000000000	        0.0000000000	        0.2076431971	        0.0000770316	        1.3583900146	        0.0000000000	       -0.0000000000	        0.0000000000	
        2.5190000000	       58.9055327129	      597.1390944805	       62.5461866233	        0.1988394961	        0.0000558755	       -0.3004071324	      140.8598796857	       -7.8634553331	      -58.4281907189	       -0.0000000000	        0.0000000000	       -0.0000000000	        0.2029003516	       -0.0000795827	        0.4543649445	       -0.0000000000	       -0.0000000000	        0.0000000000	       -0.0000000000	        0.0000000000	        0.0000000000	        0.2076431971	        0.0000770316	        1.3583900146	        0.0000000000	       -0.0000000000	        0.0000000000	
        2.5200000000	       58.6175194321	      595.5354765557	       62.1942318202	        0.1988394961	        0.0000558755	       -0.3004071324	      140.5076976214	       -7.8329719208	      -58.2648383903	       -0.0000000000	        0.0000000000	       -0.0000000000	        0.2029003516	       -0.0000795827	        0.4543649445	       -0.0000000000	       -0.0000000000	        0.0000000000	       -0.0000000000	        0.0000000000	        0.0000000000	        0.2076431971	        0.0000770316	        1.3583900146	        0.0000000000	       -0.0000000000	        0.0000000000	
        2.5210000000	       58.3224910820	      593.9336420634	       61.8494712641	        0.1988394961	        0.0000558755	       -0.3004071324	      140.1582548191	       -7.8012497906	      -58.1013846987	       -0.0000000000	        0.0000000000	       -0.0000000000	        0.2029003516	       -0.0000795827	        0.4543649445	        0.0000000000	       -0.0000000000	        0.0000000000	       -0.0000000000	        0.0000000000	        0.0000000000	        0.2076431971	        0.0000770316	        1.3583900146	        0.0000000000	       -0.0000000000	        0.0000000000	
        2.5220000000	       58.0188620473	      592.3337753307	       61.5114074438	        0.1988394961	        0.0000558755	       -0.3004071324	      139.8109063362	       -7.7678469283	      -57.9385687007	       -0.0000000000	        0.0000000000	       -0.0000000000	        0.2029003516	       -0.0000795827	        0.4543649445	        0.0000000000	       -0.0000000000	        0.0000000000	       -0.0000000000	        0.0000000000	        0.0000000000	        0.2076431971	        0.0000770316	        1.3583900146	        0.0000000000	       -0.0000000000	        0.0000000000	
        2.5230000000	       57.7049404238	      590.7367145529	       61.1785573182	        0.1988394961	        0.0000558755	       -0.3004071324	      139.4653364773	       -7.7321856611	      -57.7772333969	       -0.0000000000	        0.0000000000	       -0.0000000000	        0.2029003516	       -0.0000795827	        0.4543649445	        0.0000000000	       -0.0000000000	        0.0000000000	       -0.0000000000	        0.0000000000	        0.0000000000	        0.2076431971	        0.0000770316	        1.3583900146	        0.0000000000	       -0.0000000000	        0.0000000000	
        2.5240000000	       57.3794814431	      589.1447692138	       60.8493302792	        0.1988394961	        0.0000558755	       -0.3004071324	      139.1215406838	       -7.6937419433	      -57.6178603683	       -0.0000000000	        0.0000000000	       -0.0000000000	        0.2029003516	       -0.0000795827	        0.4543649445	        0.0000000000	       -0.0000000000	        0.0000000000	       -0.0000000000	        0.0000000000	       -0.0000000000	        0.2076431971	        0.0000770316	        1.3583900146	        0.0000000000	       -0.0000000000	        0.0000000000	
